<svg width="20" height="20" viewBox="0 0 20 20" fill="none" xmlns="http://www.w3.org/2000/svg">
<path fill-rule="evenodd" clip-rule="evenodd" d="M15.0003 3.33334H5.00033C4.07985 3.33334 3.33366 4.07953 3.33366 5.00001V15C3.33366 15.9205 4.07985 16.6667 5.00033 16.6667H15.0003C15.9208 16.6667 16.667 15.9205 16.667 15V5.00001C16.667 4.07953 15.9208 3.33334 15.0003 3.33334ZM5.00033 1.66667C3.15938 1.66667 1.66699 3.15906 1.66699 5.00001V15C1.66699 16.841 3.15938 18.3333 5.00033 18.3333H15.0003C16.8413 18.3333 18.3337 16.841 18.3337 15V5.00001C18.3337 3.15906 16.8413 1.66667 15.0003 1.66667H5.00033Z" fill="#A2B4BC"/>
</svg>
