<svg width="20" height="20" viewBox="0 0 20 20" fill="none" xmlns="http://www.w3.org/2000/svg">
<path fill-rule="evenodd" clip-rule="evenodd" d="M9.99996 1.66666C5.39996 1.66666 1.66663 5.39999 1.66663 9.99999C1.66663 14.6 5.39996 18.3333 9.99996 18.3333C14.6 18.3333 18.3333 14.6 18.3333 9.99999C18.3333 5.39999 14.6 1.66666 9.99996 1.66666ZM9.99999 16.6667C6.31666 16.6667 3.33333 13.6833 3.33333 9.99999C3.33333 6.31666 6.31666 3.33332 9.99999 3.33332C13.6833 3.33332 16.6667 6.31666 16.6667 9.99999C16.6667 13.6833 13.6833 16.6667 9.99999 16.6667ZM5.83333 9.99999C5.83333 7.6988 7.69881 5.83332 9.99999 5.83332C12.3012 5.83332 14.1667 7.6988 14.1667 9.99999C14.1667 12.3012 12.3012 14.1667 9.99999 14.1667C7.69881 14.1667 5.83333 12.3012 5.83333 9.99999Z" fill="#2D333D"/>
</svg>
